<mxfile host="Electron" agent="Mozilla/5.0 (Windows NT 10.0; Win64; x64) AppleWebKit/537.36 (KHTML, like Gecko) draw.io/24.7.8 Chrome/128.0.6613.36 Electron/32.0.1 Safari/537.36" version="24.7.8">
  <diagram id="C5RBs43oDa-KdzZeNtuy" name="Page-1">
    <mxGraphModel dx="1434" dy="836" grid="1" gridSize="10" guides="1" tooltips="1" connect="1" arrows="1" fold="1" page="1" pageScale="1" pageWidth="827" pageHeight="1169" math="0" shadow="0">
      <root>
        <mxCell id="WIyWlLk6GJQsqaUBKTNV-0" />
        <mxCell id="WIyWlLk6GJQsqaUBKTNV-1" parent="WIyWlLk6GJQsqaUBKTNV-0" />
        <mxCell id="5ZxIpcIiWSPkpoq845L6-9" style="edgeStyle=orthogonalEdgeStyle;rounded=0;orthogonalLoop=1;jettySize=auto;html=1;exitX=1;exitY=0.5;exitDx=0;exitDy=0;exitPerimeter=0;" edge="1" parent="WIyWlLk6GJQsqaUBKTNV-1" source="Y9HyjkKYSBfhpt8bLUVN-0" target="Y9HyjkKYSBfhpt8bLUVN-1">
          <mxGeometry relative="1" as="geometry" />
        </mxCell>
        <mxCell id="Y9HyjkKYSBfhpt8bLUVN-0" value="&lt;b&gt;Start&lt;/b&gt;" style="strokeWidth=2;html=1;shape=mxgraph.flowchart.terminator;whiteSpace=wrap;" parent="WIyWlLk6GJQsqaUBKTNV-1" vertex="1">
          <mxGeometry x="200" y="275" width="100" height="60" as="geometry" />
        </mxCell>
        <mxCell id="5ZxIpcIiWSPkpoq845L6-13" style="edgeStyle=orthogonalEdgeStyle;rounded=0;orthogonalLoop=1;jettySize=auto;html=1;exitX=1;exitY=0.5;exitDx=0;exitDy=0;" edge="1" parent="WIyWlLk6GJQsqaUBKTNV-1" source="Y9HyjkKYSBfhpt8bLUVN-1" target="Y9HyjkKYSBfhpt8bLUVN-19">
          <mxGeometry relative="1" as="geometry" />
        </mxCell>
        <mxCell id="Y9HyjkKYSBfhpt8bLUVN-1" value="&lt;b&gt;Data Collection&lt;/b&gt;&lt;div&gt;(file Excel dan PDF)&lt;/div&gt;&lt;div&gt;&lt;br&gt;&lt;/div&gt;&lt;div&gt;&lt;br&gt;&lt;/div&gt;" style="rounded=0;whiteSpace=wrap;html=1;verticalAlign=top;" parent="WIyWlLk6GJQsqaUBKTNV-1" vertex="1">
          <mxGeometry x="359.99" y="245" width="150" height="120" as="geometry" />
        </mxCell>
        <mxCell id="Y9HyjkKYSBfhpt8bLUVN-2" value="" style="shape=image;verticalLabelPosition=bottom;labelBackgroundColor=default;verticalAlign=top;aspect=fixed;imageAspect=0;image=https://i.ytimg.com/vi/ZOVtvj-CFeM/sddefault.jpg;clipPath=inset(21.56% 32.67% 30% 32.33%);" parent="WIyWlLk6GJQsqaUBKTNV-1" vertex="1">
          <mxGeometry x="401.28000000000003" y="290" width="67.43" height="70" as="geometry" />
        </mxCell>
        <mxCell id="5ZxIpcIiWSPkpoq845L6-10" style="edgeStyle=orthogonalEdgeStyle;rounded=0;orthogonalLoop=1;jettySize=auto;html=1;exitX=1;exitY=0.5;exitDx=0;exitDy=0;" edge="1" parent="WIyWlLk6GJQsqaUBKTNV-1" source="Y9HyjkKYSBfhpt8bLUVN-19" target="Y9HyjkKYSBfhpt8bLUVN-4">
          <mxGeometry relative="1" as="geometry" />
        </mxCell>
        <mxCell id="Y9HyjkKYSBfhpt8bLUVN-19" value="&lt;b&gt;Data Extraction&lt;/b&gt;&lt;div&gt;(Pandas, pdfplumber, PyPDF2)&lt;/div&gt;&lt;div&gt;&lt;br&gt;&lt;/div&gt;&lt;div&gt;&lt;br&gt;&lt;/div&gt;" style="rounded=0;whiteSpace=wrap;html=1;verticalAlign=top;" parent="WIyWlLk6GJQsqaUBKTNV-1" vertex="1">
          <mxGeometry x="560" y="245" width="187.16" height="120" as="geometry" />
        </mxCell>
        <mxCell id="Y9HyjkKYSBfhpt8bLUVN-16" value="" style="shape=image;verticalLabelPosition=bottom;labelBackgroundColor=default;verticalAlign=top;aspect=fixed;imageAspect=0;image=https://upload.wikimedia.org/wikipedia/commons/thumb/c/c3/Python-logo-notext.svg/1869px-Python-logo-notext.svg.png;" parent="WIyWlLk6GJQsqaUBKTNV-1" vertex="1">
          <mxGeometry x="630.7400000000001" y="300" width="45.68" height="50" as="geometry" />
        </mxCell>
        <mxCell id="5ZxIpcIiWSPkpoq845L6-4" style="edgeStyle=orthogonalEdgeStyle;rounded=0;orthogonalLoop=1;jettySize=auto;html=1;exitX=0;exitY=0.5;exitDx=0;exitDy=0;entryX=1;entryY=0.5;entryDx=0;entryDy=0;" edge="1" parent="WIyWlLk6GJQsqaUBKTNV-1" source="Y9HyjkKYSBfhpt8bLUVN-23" target="5ZxIpcIiWSPkpoq845L6-0">
          <mxGeometry relative="1" as="geometry" />
        </mxCell>
        <mxCell id="Y9HyjkKYSBfhpt8bLUVN-23" value="&lt;b&gt;Database Integration&lt;/b&gt;&lt;br&gt;&lt;div&gt;&lt;br&gt;&lt;/div&gt;&lt;div&gt;&lt;br&gt;&lt;/div&gt;" style="rounded=0;whiteSpace=wrap;html=1;verticalAlign=top;" parent="WIyWlLk6GJQsqaUBKTNV-1" vertex="1">
          <mxGeometry x="578.58" y="610" width="150" height="120" as="geometry" />
        </mxCell>
        <mxCell id="Y9HyjkKYSBfhpt8bLUVN-25" value="" style="shape=image;verticalLabelPosition=bottom;labelBackgroundColor=default;verticalAlign=top;aspect=fixed;imageAspect=0;image=https://download.logo.wine/logo/MySQL/MySQL-Logo.wine.png;" parent="WIyWlLk6GJQsqaUBKTNV-1" vertex="1">
          <mxGeometry x="601.08" y="650" width="105" height="70" as="geometry" />
        </mxCell>
        <mxCell id="Y9HyjkKYSBfhpt8bLUVN-26" value="&lt;b&gt;End&lt;/b&gt;" style="strokeWidth=2;html=1;shape=mxgraph.flowchart.terminator;whiteSpace=wrap;" parent="WIyWlLk6GJQsqaUBKTNV-1" vertex="1">
          <mxGeometry x="200" y="640" width="100" height="60" as="geometry" />
        </mxCell>
        <mxCell id="5ZxIpcIiWSPkpoq845L6-14" style="edgeStyle=orthogonalEdgeStyle;rounded=0;orthogonalLoop=1;jettySize=auto;html=1;exitX=0;exitY=0.5;exitDx=0;exitDy=0;" edge="1" parent="WIyWlLk6GJQsqaUBKTNV-1" source="5ZxIpcIiWSPkpoq845L6-0" target="Y9HyjkKYSBfhpt8bLUVN-26">
          <mxGeometry relative="1" as="geometry" />
        </mxCell>
        <mxCell id="5ZxIpcIiWSPkpoq845L6-0" value="&lt;div&gt;&lt;b&gt;Otomatisasi&lt;/b&gt;&lt;/div&gt;" style="rounded=0;whiteSpace=wrap;html=1;verticalAlign=middle;" vertex="1" parent="WIyWlLk6GJQsqaUBKTNV-1">
          <mxGeometry x="369.99" y="635" width="130" height="70" as="geometry" />
        </mxCell>
        <mxCell id="5ZxIpcIiWSPkpoq845L6-12" style="edgeStyle=orthogonalEdgeStyle;rounded=0;orthogonalLoop=1;jettySize=auto;html=1;exitX=0.5;exitY=1;exitDx=0;exitDy=0;entryX=1;entryY=0.5;entryDx=0;entryDy=0;" edge="1" parent="WIyWlLk6GJQsqaUBKTNV-1" source="Y9HyjkKYSBfhpt8bLUVN-4" target="Y9HyjkKYSBfhpt8bLUVN-23">
          <mxGeometry relative="1" as="geometry" />
        </mxCell>
        <mxCell id="Y9HyjkKYSBfhpt8bLUVN-4" value="&lt;div&gt;&lt;b&gt;Data Preprocessing&lt;/b&gt;&lt;/div&gt;" style="rounded=0;whiteSpace=wrap;html=1;verticalAlign=top;" parent="WIyWlLk6GJQsqaUBKTNV-1" vertex="1">
          <mxGeometry x="690" y="400" width="270" height="180" as="geometry" />
        </mxCell>
        <mxCell id="Y9HyjkKYSBfhpt8bLUVN-10" style="edgeStyle=orthogonalEdgeStyle;rounded=0;orthogonalLoop=1;jettySize=auto;html=1;exitX=1;exitY=0.5;exitDx=0;exitDy=0;" parent="WIyWlLk6GJQsqaUBKTNV-1" source="Y9HyjkKYSBfhpt8bLUVN-8" target="Y9HyjkKYSBfhpt8bLUVN-9" edge="1">
          <mxGeometry relative="1" as="geometry" />
        </mxCell>
        <mxCell id="Y9HyjkKYSBfhpt8bLUVN-8" value="Data Cleaning" style="rounded=0;whiteSpace=wrap;html=1;" parent="WIyWlLk6GJQsqaUBKTNV-1" vertex="1">
          <mxGeometry x="700" y="445" width="90" height="60" as="geometry" />
        </mxCell>
        <mxCell id="Y9HyjkKYSBfhpt8bLUVN-9" value="Data Transformation" style="rounded=0;whiteSpace=wrap;html=1;" parent="WIyWlLk6GJQsqaUBKTNV-1" vertex="1">
          <mxGeometry x="850" y="445" width="100" height="60" as="geometry" />
        </mxCell>
        <mxCell id="Y9HyjkKYSBfhpt8bLUVN-11" value="" style="shape=image;verticalLabelPosition=bottom;labelBackgroundColor=default;verticalAlign=top;aspect=fixed;imageAspect=0;image=https://upload.wikimedia.org/wikipedia/commons/thumb/c/c3/Python-logo-notext.svg/1869px-Python-logo-notext.svg.png;" parent="WIyWlLk6GJQsqaUBKTNV-1" vertex="1">
          <mxGeometry x="795.1800000000001" y="510" width="54.82" height="60" as="geometry" />
        </mxCell>
      </root>
    </mxGraphModel>
  </diagram>
</mxfile>
